<svg id="svg" fill="#f5caa1" stroke="#f5caa1" width="201" height="201" version="1.1" viewBox="143 143 514 514" xmlns="http://www.w3.org/2000/svg" stroke-width="0">
    <g id="IconSvg_bgCarrier" stroke-width="0"></g>
    <g id="IconSvg_tracerCarrier" stroke-linecap="round" stroke-linejoin="round" stroke="#CCCCCC" stroke-width="0">
      <path xmlns="http://www.w3.org/2000/svg" d="m561.51 299.89c4.4844 4.4844 4.4844 11.75 0 16.234l-174.8 174.8c-2.1523 2.1523-5.0703 3.3633-8.1172 3.3633-3.043 0-5.9648-1.2109-8.1172-3.3633l-92.672-92.672c-4.4844-4.4844-4.4844-11.754 0-16.234 4.4844-4.4844 11.75-4.4844 16.234 0l84.562 84.527 166.68-166.66c2.1523-2.1523 5.0742-3.3633 8.1172-3.3633 3.0469 0 5.9648 1.2109 8.1172 3.3633zm83.324-89.055v378.33c-0.015625 14.758-5.8867 28.91-16.324 39.344-10.434 10.438-24.586 16.309-39.344 16.324h-378.33c-14.762-0.015625-28.91-5.8867-39.348-16.324-10.438-10.434-16.309-24.586-16.324-39.344v-378.33c0.019532-14.762 5.8867-28.91 16.324-39.348s24.586-16.305 39.348-16.324h378.33c14.758 0.019532 28.906 5.8867 39.344 16.324s16.309 24.586 16.324 39.348zm-22.953 0h0.003906c-0.011718-8.6758-3.4609-16.992-9.5977-23.125-6.1328-6.1367-14.449-9.5859-23.121-9.5977h-378.33c-8.6758 0.011719-16.992 3.4609-23.125 9.5977-6.1367 6.1328-9.5859 14.449-9.5977 23.125v378.33c0.011719 8.6719 3.4609 16.988 9.5977 23.121 6.1328 6.1367 14.449 9.5859 23.125 9.5977h378.33c8.6719-0.011718 16.988-3.4609 23.121-9.5977 6.1367-6.1328 9.5859-14.449 9.5977-23.121z"></path>

      </g>
     <g id="IconSvg_iconCarrier">
      <path xmlns="http://www.w3.org/2000/svg" d="m561.51 299.89c4.4844 4.4844 4.4844 11.75 0 16.234l-174.8 174.8c-2.1523 2.1523-5.0703 3.3633-8.1172 3.3633-3.043 0-5.9648-1.2109-8.1172-3.3633l-92.672-92.672c-4.4844-4.4844-4.4844-11.754 0-16.234 4.4844-4.4844 11.75-4.4844 16.234 0l84.562 84.527 166.68-166.66c2.1523-2.1523 5.0742-3.3633 8.1172-3.3633 3.0469 0 5.9648 1.2109 8.1172 3.3633zm83.324-89.055v378.33c-0.015625 14.758-5.8867 28.91-16.324 39.344-10.434 10.438-24.586 16.309-39.344 16.324h-378.33c-14.762-0.015625-28.91-5.8867-39.348-16.324-10.438-10.434-16.309-24.586-16.324-39.344v-378.33c0.019532-14.762 5.8867-28.91 16.324-39.348s24.586-16.305 39.348-16.324h378.33c14.758 0.019532 28.906 5.8867 39.344 16.324s16.309 24.586 16.324 39.348zm-22.953 0h0.003906c-0.011718-8.6758-3.4609-16.992-9.5977-23.125-6.1328-6.1367-14.449-9.5859-23.121-9.5977h-378.33c-8.6758 0.011719-16.992 3.4609-23.125 9.5977-6.1367 6.1328-9.5859 14.449-9.5977 23.125v378.33c0.011719 8.6719 3.4609 16.988 9.5977 23.121 6.1328 6.1367 14.449 9.5859 23.125 9.5977h378.33c8.6719-0.011718 16.988-3.4609 23.121-9.5977 6.1367-6.1328 9.5859-14.449 9.5977-23.121z"></path>

      </g>
      </svg>