<svg id="svg" fill="#f5caa1" stroke="#f5caa1" width="200" height="200" version="1.1" viewBox="144 144 512 512" xmlns="http://www.w3.org/2000/svg">
    <g id="IconSvg_bgCarrier" stroke-width="0"></g>
    <g id="IconSvg_tracerCarrier" stroke-linecap="round" stroke-linejoin="round" stroke="#CCCCCC" stroke-width="0">
      <path xmlns="http://www.w3.org/2000/svg" d="m474.23 259.66-148.27 79.887h-0.011719l-152.16 81.984v36.914l151.98 81.891 148.79-80.172h0.003906l151.65-81.703v-36.918zm-148.64 88.074 148.64-80.086 141.05 75.996-142.71 76.891 1.668 3.0938-1.6719-3.0938-146.79 79.094-141.05-76zm-144.77 81.777 141.43 76.207v24.73l-141.43-76.195zm293.08 23.031-144.61 77.914v-24.73l144.75-77.996h0.003906l145.14-78.195v24.738z"></path>

      </g>
     <g id="IconSvg_iconCarrier">
      <path xmlns="http://www.w3.org/2000/svg" d="m474.23 259.66-148.27 79.887h-0.011719l-152.16 81.984v36.914l151.98 81.891 148.79-80.172h0.003906l151.65-81.703v-36.918zm-148.64 88.074 148.64-80.086 141.05 75.996-142.71 76.891 1.668 3.0938-1.6719-3.0938-146.79 79.094-141.05-76zm-144.77 81.777 141.43 76.207v24.73l-141.43-76.195zm293.08 23.031-144.61 77.914v-24.73l144.75-77.996h0.003906l145.14-78.195v24.738z"></path>

      </g>
      </svg>