<svg id="svg" fill="#f5caa1" stroke="#f5caa1" width="200" height="200" version="1.1" viewBox="144 144 512 512" xmlns="http://www.w3.org/2000/svg">
    <g id="IconSvg_bgCarrier" stroke-width="0"></g>
    <g id="IconSvg_tracerCarrier" stroke-linecap="round" stroke-linejoin="round" stroke="#CCCCCC" stroke-width="0">
      <path xmlns="http://www.w3.org/2000/svg" d="m163.55 159.9c-1.043 0-2.0469 0.41406-2.7852 1.1523s-1.1523 1.7422-1.1523 2.7852v472.33c0 1.043 0.41406 2.0469 1.1523 2.7812 0.73828 0.73828 1.7422 1.1523 2.7852 1.1523h346.37c2.1719-0.003906 3.9258-1.7656 3.9258-3.9336v-124.25l23.852-23.852 11.141-11.129 83.496-83.492c10.742-10.746 10.742-28.219 0-38.961-10.75-10.746-28.227-10.746-38.969 0l-13.914 13.914-8.3555-8.3555c-0.73828-0.73828-1.7422-1.1523-2.7852-1.1523-1.043 0-2.0469 0.41406-2.7852 1.1523l-51.68 51.77v-169.24c0.003906-1.043-0.40625-2.0391-1.1406-2.7812l-78.723-78.723c-0.73828-0.74219-1.7422-1.1562-2.7852-1.1562zm3.9375 7.8711h259.78v74.793c0 2.1719 1.7617 3.9297 3.9297 3.9336h74.789v195.46l-7.1875 7.1875-44.535 44.531c-0.035157 0.023438-0.074219 0.050781-0.10938 0.074219-0.039063 0.035156-0.078125 0.074219-0.11328 0.11328-0.050781 0.046875-0.10156 0.097657-0.14844 0.14844-0.039063 0.023437-0.074219 0.046875-0.11328 0.074219-0.0625 0.082031-0.125 0.17187-0.18359 0.25781-0.13281 0.20312-0.24219 0.41406-0.33594 0.63281l-27.742 61.051c-0.67578 1.4922-0.35547 3.2422 0.80469 4.3984 1.1562 1.1602 2.9062 1.4805 4.4023 0.80469l61.23-27.828c0.51172-0.23438 0.96094-0.57422 1.3281-0.99609l12.676-12.621v112.45h-338.47zm267.65 5.5703 65.277 65.281h-65.277zm27.652 128.26h-0.10938-251.9c-1.4453-0.058594-2.8086 0.67578-3.5469 1.918-0.74219 1.2422-0.74219 2.7891 0 4.0312 0.73828 1.2422 2.1016 1.9766 3.5469 1.918h251.9c1.4414 0.078125 2.8086-0.64062 3.5664-1.8711 0.75391-1.2305 0.77734-2.7734 0.054687-4.0273-0.71875-1.25-2.0664-2.0039-3.5117-1.9688zm-252 31.488c-1.4297-0.039063-2.7734 0.69922-3.5 1.9336-0.73047 1.2344-0.73047 2.7695 0 4.0039 0.72656 1.2344 2.0703 1.9727 3.5 1.9336h251.91c1.4297 0.039063 2.7734-0.69922 3.5-1.9336 0.73047-1.2344 0.73047-2.7695 0-4.0039-0.72656-1.2344-2.0703-1.9727-3.5-1.9336zm402.11 21.176c5.0156 0 10.039 1.9414 13.914 5.8203 7.7656 7.7578 7.7656 20.074 0 27.832l-2.7773 2.7773-27.836-27.828 2.7852-2.7812c3.875-3.8789 8.8984-5.8203 13.914-5.8203zm-150.11 10.312h-0.10938-251.9c-1.4453-0.0625-2.8086 0.67188-3.5469 1.9141-0.74219 1.2422-0.74219 2.793 0 4.0352 0.73828 1.2383 2.1016 1.9766 3.5469 1.9141h251.9c1.4258 0.058594 2.7734-0.66797 3.5195-1.8867 0.74219-1.2227 0.76172-2.75 0.054688-3.9922-0.70703-1.2461-2.0352-2.0039-3.4648-1.9883zm127.84 3.8555 27.84 27.828-75.148 75.148-11.129 11.133-41.75 41.746-27.828-27.832 41.75-41.746 11.129-11.133 66.656-66.664c0.089844-0.082031 0.17969-0.17188 0.26172-0.26172zm-22.254 0 5.5664 5.5703-60.094 60.086v-11.781c0.625-0.19141 1.1875-0.53516 1.6445-0.99609zm-357.59 27.625c-1.4062 0-2.7031 0.75-3.4062 1.9688s-0.70312 2.7188 0 3.9375 2 1.9648 3.4062 1.9648h251.91c1.4062 0 2.7031-0.74609 3.4062-1.9648s0.70312-2.7188 0-3.9375-2-1.9688-3.4062-1.9688zm0 31.488c-2.1523 0.03125-3.8828 1.7852-3.8828 3.9375 0 2.1523 1.7305 3.9062 3.8828 3.9375h251.91c1.418 0.019531 2.7383-0.72656 3.4531-1.9531 0.71484-1.2266 0.71484-2.7422 0-3.9688-0.71484-1.2266-2.0352-1.9727-3.4531-1.9531zm157.54 31.496h-0.11328-157.43c-1.4453-0.058593-2.8086 0.67578-3.5508 1.918-0.73828 1.2422-0.73828 2.7891 0 4.0312 0.74219 1.2422 2.1055 1.9805 3.5508 1.918h157.43c1.4297 0.054688 2.7734-0.66797 3.5195-1.8906 0.74219-1.2188 0.76172-2.75 0.054687-3.9922-0.70703-1.2422-2.0312-2.0039-3.4609-1.9883zm-157.54 31.492c-1.4297-0.042969-2.7734 0.69922-3.5 1.9336-0.73047 1.2344-0.73047 2.7656 0 4 0.72656 1.2344 2.0703 1.9766 3.5 1.9336h157.44c1.4336 0.042968 2.7734-0.69922 3.5039-1.9336 0.72656-1.2344 0.72656-2.7656 0-4-0.73047-1.2344-2.0703-1.9766-3.5039-1.9336zm247.48 12.73 25.371 25.363-34.441 15.652-6.582-6.5742zm-247.48 18.75c-2.1523 0.03125-3.8828 1.7852-3.8828 3.9375 0 2.1523 1.7305 3.9062 3.8828 3.9375h78.719c1.418 0.019531 2.7383-0.73047 3.4531-1.9531 0.71875-1.2266 0.71875-2.7422 0-3.9688-0.71484-1.2266-2.0352-1.9727-3.4531-1.9531zm173.19 47.234c-1.4336-0.039063-2.7773 0.69922-3.5039 1.9336-0.73047 1.2344-0.73047 2.7695 0 4.0039 0.72656 1.2344 2.0703 1.9766 3.5039 1.9336h78.719c1.4297 0.042968 2.7734-0.69922 3.5-1.9336 0.73047-1.2344 0.73047-2.7695 0-4.0039-0.72656-1.2344-2.0703-1.9727-3.5-1.9336z"></path>

      </g>
     <g id="IconSvg_iconCarrier">
      <path xmlns="http://www.w3.org/2000/svg" d="m163.55 159.9c-1.043 0-2.0469 0.41406-2.7852 1.1523s-1.1523 1.7422-1.1523 2.7852v472.33c0 1.043 0.41406 2.0469 1.1523 2.7812 0.73828 0.73828 1.7422 1.1523 2.7852 1.1523h346.37c2.1719-0.003906 3.9258-1.7656 3.9258-3.9336v-124.25l23.852-23.852 11.141-11.129 83.496-83.492c10.742-10.746 10.742-28.219 0-38.961-10.75-10.746-28.227-10.746-38.969 0l-13.914 13.914-8.3555-8.3555c-0.73828-0.73828-1.7422-1.1523-2.7852-1.1523-1.043 0-2.0469 0.41406-2.7852 1.1523l-51.68 51.77v-169.24c0.003906-1.043-0.40625-2.0391-1.1406-2.7812l-78.723-78.723c-0.73828-0.74219-1.7422-1.1562-2.7852-1.1562zm3.9375 7.8711h259.78v74.793c0 2.1719 1.7617 3.9297 3.9297 3.9336h74.789v195.46l-7.1875 7.1875-44.535 44.531c-0.035157 0.023438-0.074219 0.050781-0.10938 0.074219-0.039063 0.035156-0.078125 0.074219-0.11328 0.11328-0.050781 0.046875-0.10156 0.097657-0.14844 0.14844-0.039063 0.023437-0.074219 0.046875-0.11328 0.074219-0.0625 0.082031-0.125 0.17187-0.18359 0.25781-0.13281 0.20312-0.24219 0.41406-0.33594 0.63281l-27.742 61.051c-0.67578 1.4922-0.35547 3.2422 0.80469 4.3984 1.1562 1.1602 2.9062 1.4805 4.4023 0.80469l61.23-27.828c0.51172-0.23438 0.96094-0.57422 1.3281-0.99609l12.676-12.621v112.45h-338.47zm267.65 5.5703 65.277 65.281h-65.277zm27.652 128.26h-0.10938-251.9c-1.4453-0.058594-2.8086 0.67578-3.5469 1.918-0.74219 1.2422-0.74219 2.7891 0 4.0312 0.73828 1.2422 2.1016 1.9766 3.5469 1.918h251.9c1.4414 0.078125 2.8086-0.64062 3.5664-1.8711 0.75391-1.2305 0.77734-2.7734 0.054687-4.0273-0.71875-1.25-2.0664-2.0039-3.5117-1.9688zm-252 31.488c-1.4297-0.039063-2.7734 0.69922-3.5 1.9336-0.73047 1.2344-0.73047 2.7695 0 4.0039 0.72656 1.2344 2.0703 1.9727 3.5 1.9336h251.91c1.4297 0.039063 2.7734-0.69922 3.5-1.9336 0.73047-1.2344 0.73047-2.7695 0-4.0039-0.72656-1.2344-2.0703-1.9727-3.5-1.9336zm402.11 21.176c5.0156 0 10.039 1.9414 13.914 5.8203 7.7656 7.7578 7.7656 20.074 0 27.832l-2.7773 2.7773-27.836-27.828 2.7852-2.7812c3.875-3.8789 8.8984-5.8203 13.914-5.8203zm-150.11 10.312h-0.10938-251.9c-1.4453-0.0625-2.8086 0.67188-3.5469 1.9141-0.74219 1.2422-0.74219 2.793 0 4.0352 0.73828 1.2383 2.1016 1.9766 3.5469 1.9141h251.9c1.4258 0.058594 2.7734-0.66797 3.5195-1.8867 0.74219-1.2227 0.76172-2.75 0.054688-3.9922-0.70703-1.2461-2.0352-2.0039-3.4648-1.9883zm127.84 3.8555 27.84 27.828-75.148 75.148-11.129 11.133-41.75 41.746-27.828-27.832 41.75-41.746 11.129-11.133 66.656-66.664c0.089844-0.082031 0.17969-0.17188 0.26172-0.26172zm-22.254 0 5.5664 5.5703-60.094 60.086v-11.781c0.625-0.19141 1.1875-0.53516 1.6445-0.99609zm-357.59 27.625c-1.4062 0-2.7031 0.75-3.4062 1.9688s-0.70312 2.7188 0 3.9375 2 1.9648 3.4062 1.9648h251.91c1.4062 0 2.7031-0.74609 3.4062-1.9648s0.70312-2.7188 0-3.9375-2-1.9688-3.4062-1.9688zm0 31.488c-2.1523 0.03125-3.8828 1.7852-3.8828 3.9375 0 2.1523 1.7305 3.9062 3.8828 3.9375h251.91c1.418 0.019531 2.7383-0.72656 3.4531-1.9531 0.71484-1.2266 0.71484-2.7422 0-3.9688-0.71484-1.2266-2.0352-1.9727-3.4531-1.9531zm157.54 31.496h-0.11328-157.43c-1.4453-0.058593-2.8086 0.67578-3.5508 1.918-0.73828 1.2422-0.73828 2.7891 0 4.0312 0.74219 1.2422 2.1055 1.9805 3.5508 1.918h157.43c1.4297 0.054688 2.7734-0.66797 3.5195-1.8906 0.74219-1.2188 0.76172-2.75 0.054687-3.9922-0.70703-1.2422-2.0312-2.0039-3.4609-1.9883zm-157.54 31.492c-1.4297-0.042969-2.7734 0.69922-3.5 1.9336-0.73047 1.2344-0.73047 2.7656 0 4 0.72656 1.2344 2.0703 1.9766 3.5 1.9336h157.44c1.4336 0.042968 2.7734-0.69922 3.5039-1.9336 0.72656-1.2344 0.72656-2.7656 0-4-0.73047-1.2344-2.0703-1.9766-3.5039-1.9336zm247.48 12.73 25.371 25.363-34.441 15.652-6.582-6.5742zm-247.48 18.75c-2.1523 0.03125-3.8828 1.7852-3.8828 3.9375 0 2.1523 1.7305 3.9062 3.8828 3.9375h78.719c1.418 0.019531 2.7383-0.73047 3.4531-1.9531 0.71875-1.2266 0.71875-2.7422 0-3.9688-0.71484-1.2266-2.0352-1.9727-3.4531-1.9531zm173.19 47.234c-1.4336-0.039063-2.7773 0.69922-3.5039 1.9336-0.73047 1.2344-0.73047 2.7695 0 4.0039 0.72656 1.2344 2.0703 1.9766 3.5039 1.9336h78.719c1.4297 0.042968 2.7734-0.69922 3.5-1.9336 0.73047-1.2344 0.73047-2.7695 0-4.0039-0.72656-1.2344-2.0703-1.9727-3.5-1.9336z"></path>

      </g>
      </svg>