<svg id="svg" fill="#f5caa1" stroke="#f5caa1" width="200" height="200" version="1.1" viewBox="144 144 512 512" xmlns="http://www.w3.org/2000/svg">
    <g id="IconSvg_bgCarrier" stroke-width="0"></g>
    <g id="IconSvg_tracerCarrier" stroke-linecap="round" stroke-linejoin="round" stroke="#CCCCCC" stroke-width="0">
      <g xmlns="http://www.w3.org/2000/svg">
  <path d="m400.02 163.9c-52.078 0-94.434 42.355-94.434 94.434 0 28.195 12.484 53.484 32.133 70.816h28.012c-26.285-12.73-44.387-39.57-44.387-70.816 0-43.57 35.105-78.734 78.676-78.734s78.734 35.168 78.734 78.734c0 31.246-18.129 58.086-44.434 70.816h28.027c19.664-17.332 32.164-42.625 32.164-70.816 0-52.078-42.418-94.434-94.496-94.434z"></path>
  <path d="m344.89 415.85c-25.992 0-47.242 21.129-47.242 47.242 0 26.176 21.25 47.242 47.242 47.242h110.23c25.992 0 47.188-21.004 47.188-47.242 0-26.176-21.191-47.242-47.188-47.242zm0 15.746h110.23c17.484 0 31.438 14.164 31.438 31.496 0 17.359-13.953 31.496-31.438 31.496h-110.23c-17.484 0-31.496-14.258-31.496-31.496 0-17.27 14.012-31.496 31.496-31.496z"></path>
  <path d="m352.62 447.23c-2.0898 0.039062-4.0781 0.90625-5.5273 2.4102s-2.2422 3.5195-2.2031 5.6094v15.746c0 2.0898 0.82812 4.0938 2.3047 5.5742 1.4766 1.4766 3.4805 2.3086 5.5703 2.3086s4.0938-0.83203 5.5703-2.3086c1.4766-1.4805 2.3047-3.4844 2.3047-5.5742v-15.746c0.039063-2.1406-0.79297-4.2031-2.3047-5.7148-1.5117-1.5117-3.5742-2.3438-5.7148-2.3047z"></path>
  <path d="m399.86 447.23c-2.0859 0.039062-4.0742 0.90625-5.5234 2.4102-1.4492 1.5039-2.2422 3.5195-2.2031 5.6094v15.746c-0.003907 2.0898 0.82422 4.0977 2.3008 5.5742 1.4805 1.4805 3.4844 2.3086 5.5742 2.3086 2.0898 0 4.0938-0.82812 5.5703-2.3086 1.4766-1.4766 2.3047-3.4844 2.3008-5.5742v-15.746c0.042969-2.1406-0.78906-4.2031-2.3047-5.7148-1.5117-1.5117-3.5742-2.3438-5.7148-2.3047z"></path>
  <path d="m447.11 447.23c-2.0898 0.039062-4.0781 0.90625-5.5273 2.4102s-2.2422 3.5195-2.2031 5.6094v15.746c0 4.3516 3.5273 7.875 7.875 7.875s7.875-3.5234 7.875-7.875v-15.746c0.039063-2.1406-0.79297-4.2031-2.3047-5.7148-1.5117-1.5117-3.5781-2.3438-5.7148-2.3047z"></path>
  <path d="m392.12 218.97s-5.5742-0.11719-11.391 2.7891c-5.8125 2.9062-12.203 9.2617-12.203 20.805 0 11.574 6.3906 17.898 12.203 20.805s11.391 2.8477 11.391 2.8477h15.746s2.3008 0.074218 4.3594 1.1055c2.0586 1.0273 3.543 2.6289 3.543 6.7422 0 4.0781-1.4883 5.7109-3.543 6.7422-2.0586 1.0273-4.3594 1.1641-4.3594 1.1641l-15.746-0.007812c-3.9258 0-5.6523-1.4883-6.6836-3.543-1.0273-2.0586-1.1641-4.3594-1.1641-4.3594 0-10.5-15.746-10.5-15.746 0 0 0-0.11719 5.5742 2.7891 11.391 2.9062 5.8125 9.2617 12.262 20.805 12.262h15.746s5.5742 0.058593 11.391-2.8477c5.8125-2.9062 12.262-9.1406 12.262-20.805 0-11.789-6.4492-17.898-12.262-20.805s-11.391-2.7891-11.391-2.7891h-15.746s-2.2422-0.13281-4.3008-1.1641c-2.0586-1.0273-3.543-2.6289-3.543-6.7422 0-4.0312 1.4883-5.7109 3.543-6.7422 2.0586-1.0273 4.3008-1.1055 4.3008-1.1055h15.746s2.3008 0.074218 4.3594 1.1055c2.0586 1.0273 3.543 2.6602 3.543 6.7422 0 10.5 15.746 10.5 15.746 0 0-11.664-6.4492-17.898-12.262-20.805s-11.391-2.7891-11.391-2.7891z"></path>
  <path d="m399.91 203.11c-4.3477 0.046875-7.8359 3.6133-7.7852 7.9609v15.746h15.746v-15.746c0.050781-4.418-3.543-8.0117-7.9609-7.9609z"></path>
  <path d="m392.12 289.8v15.746c0 10.5 15.746 10.5 15.746 0v-15.746s-15.723 0.003906-15.746 0z"></path>
  <path d="m305.52 321.26s-5.5742-0.11719-11.391 2.7891c-5.8125 2.9062-12.203 9.2266-12.203 20.863 0 11.602 6.3906 17.898 12.203 20.805 1.8086 0.90625 3.543 1.457 3.543 1.457l0.003906 17.078h-55.09s-9.543-0.10938-19.293 4.7656-20.105 15.102-20.105 34.574v173.23c0 19.445 10.355 29.699 20.105 34.574s19.293 4.7656 19.293 4.7656l314.84 0.003906s9.543 0.10938 19.293-4.7656 20.105-15.191 20.105-34.574l0.003907-173.23c0-19.414-10.355-29.699-20.105-34.574-9.7539-4.875-19.297-4.7656-19.297-4.7656h-55.086v-17.664c1.6016-0.41406 1.7344 0.035156 3.543-0.87109 5.8125-2.9062 12.203-9.168 12.203-20.805 0-11.633-6.3906-17.953-12.203-20.863-5.8125-2.9062-11.391-2.7891-11.391-2.7891zm0 15.746h188.98s2.2422 0.13281 4.3008 1.1641c2.0586 1.0273 3.543 2.5391 3.543 6.7422 0 4.0469-1.4883 5.7109-3.543 6.7422-2.0586 1.0273-4.3008 1.1055-4.3008 1.1055-4.3711-0.015625-7.918 3.5312-7.9023 7.9023v31.438c-0.015625 4.3711 3.5312 7.918 7.9023 7.9023h62.934s6.2656 0.082032 12.262 3.0781c5.9961 2.9961 11.391 8.6836 11.391 20.512v173.23c0 11.766-5.3945 17.516-11.391 20.512-5.9961 3-12.266 3.082-12.266 3.082h-314.84s-6.2656-0.082031-12.262-3.0781c-5.9961-2.9961-11.391-8.7148-11.391-20.512v-173.23c0-11.797 5.3945-17.516 11.391-20.512 5.9922-2.9961 12.262-3.0781 12.262-3.0781h62.934c4.3711 0.015625 7.918-3.5312 7.9023-7.9023v-31.441c0.015625-4.3711-3.5312-7.918-7.9023-7.9023 0 0-2.3008-0.074218-4.3594-1.1055-2.0586-1.0273-3.4883-2.8164-3.4883-6.7422 0-4.0469 1.4297-5.7109 3.4883-6.7422 2.0586-1.0273 4.3594-1.1641 4.3594-1.1641z"></path>
  <path d="m344.89 494.45c-25.992 0-47.242 21.129-47.242 47.242 0 26.176 21.25 47.242 47.242 47.242h110.23c25.992 0 47.188-21.004 47.188-47.242 0-26.176-21.191-47.242-47.188-47.242zm0 15.746h110.23c17.484 0 31.438 14.164 31.438 31.496 0 17.359-13.953 31.496-31.438 31.496l-110.23 0.003906c-17.484 0-31.496-14.258-31.496-31.496 0-17.27 14.012-31.496 31.496-31.496z"></path>
  <path d="m352.62 525.83c-2.0898 0.035157-4.0781 0.90234-5.5273 2.4062-1.4492 1.5039-2.2422 3.5234-2.2031 5.6133v15.746c0 2.0898 0.82812 4.0938 2.3047 5.5703 1.4766 1.4805 3.4805 2.3086 5.5703 2.3086s4.0938-0.82812 5.5703-2.3086c1.4766-1.4766 2.3047-3.4805 2.3047-5.5703v-15.746c0.039063-2.1406-0.79297-4.2031-2.3047-5.7148-1.5117-1.5156-3.5742-2.3477-5.7148-2.3047z"></path>
  <path d="m399.86 525.83c-2.0859 0.035157-4.0742 0.90234-5.5234 2.4062-1.4492 1.5039-2.2422 3.5234-2.2031 5.6133v15.746c-0.003907 2.0898 0.82422 4.0938 2.3008 5.5742 1.4805 1.4766 3.4844 2.3086 5.5742 2.3086 2.0898 0 4.0938-0.83203 5.5703-2.3086 1.4766-1.4805 2.3047-3.4844 2.3008-5.5742v-15.746c0.042969-2.1406-0.78906-4.2031-2.3047-5.7148-1.5117-1.5156-3.5742-2.3477-5.7148-2.3047z"></path>
  <path d="m447.11 525.83c-2.0898 0.035157-4.0781 0.90234-5.5273 2.4062-1.4492 1.5039-2.2422 3.5234-2.2031 5.6133v15.746c0 4.3477 3.5273 7.875 7.875 7.875s7.875-3.5273 7.875-7.875v-15.746c0.039063-2.1406-0.79297-4.2031-2.3047-5.7148-1.5117-1.5156-3.5781-2.3477-5.7148-2.3047z"></path>
 </g>

      </g>
     <g id="IconSvg_iconCarrier">
      <g xmlns="http://www.w3.org/2000/svg">
  <path d="m400.02 163.9c-52.078 0-94.434 42.355-94.434 94.434 0 28.195 12.484 53.484 32.133 70.816h28.012c-26.285-12.73-44.387-39.57-44.387-70.816 0-43.57 35.105-78.734 78.676-78.734s78.734 35.168 78.734 78.734c0 31.246-18.129 58.086-44.434 70.816h28.027c19.664-17.332 32.164-42.625 32.164-70.816 0-52.078-42.418-94.434-94.496-94.434z"></path>
  <path d="m344.89 415.85c-25.992 0-47.242 21.129-47.242 47.242 0 26.176 21.25 47.242 47.242 47.242h110.23c25.992 0 47.188-21.004 47.188-47.242 0-26.176-21.191-47.242-47.188-47.242zm0 15.746h110.23c17.484 0 31.438 14.164 31.438 31.496 0 17.359-13.953 31.496-31.438 31.496h-110.23c-17.484 0-31.496-14.258-31.496-31.496 0-17.27 14.012-31.496 31.496-31.496z"></path>
  <path d="m352.62 447.23c-2.0898 0.039062-4.0781 0.90625-5.5273 2.4102s-2.2422 3.5195-2.2031 5.6094v15.746c0 2.0898 0.82812 4.0938 2.3047 5.5742 1.4766 1.4766 3.4805 2.3086 5.5703 2.3086s4.0938-0.83203 5.5703-2.3086c1.4766-1.4805 2.3047-3.4844 2.3047-5.5742v-15.746c0.039063-2.1406-0.79297-4.2031-2.3047-5.7148-1.5117-1.5117-3.5742-2.3438-5.7148-2.3047z"></path>
  <path d="m399.86 447.23c-2.0859 0.039062-4.0742 0.90625-5.5234 2.4102-1.4492 1.5039-2.2422 3.5195-2.2031 5.6094v15.746c-0.003907 2.0898 0.82422 4.0977 2.3008 5.5742 1.4805 1.4805 3.4844 2.3086 5.5742 2.3086 2.0898 0 4.0938-0.82812 5.5703-2.3086 1.4766-1.4766 2.3047-3.4844 2.3008-5.5742v-15.746c0.042969-2.1406-0.78906-4.2031-2.3047-5.7148-1.5117-1.5117-3.5742-2.3438-5.7148-2.3047z"></path>
  <path d="m447.11 447.23c-2.0898 0.039062-4.0781 0.90625-5.5273 2.4102s-2.2422 3.5195-2.2031 5.6094v15.746c0 4.3516 3.5273 7.875 7.875 7.875s7.875-3.5234 7.875-7.875v-15.746c0.039063-2.1406-0.79297-4.2031-2.3047-5.7148-1.5117-1.5117-3.5781-2.3438-5.7148-2.3047z"></path>
  <path d="m392.12 218.97s-5.5742-0.11719-11.391 2.7891c-5.8125 2.9062-12.203 9.2617-12.203 20.805 0 11.574 6.3906 17.898 12.203 20.805s11.391 2.8477 11.391 2.8477h15.746s2.3008 0.074218 4.3594 1.1055c2.0586 1.0273 3.543 2.6289 3.543 6.7422 0 4.0781-1.4883 5.7109-3.543 6.7422-2.0586 1.0273-4.3594 1.1641-4.3594 1.1641l-15.746-0.007812c-3.9258 0-5.6523-1.4883-6.6836-3.543-1.0273-2.0586-1.1641-4.3594-1.1641-4.3594 0-10.5-15.746-10.5-15.746 0 0 0-0.11719 5.5742 2.7891 11.391 2.9062 5.8125 9.2617 12.262 20.805 12.262h15.746s5.5742 0.058593 11.391-2.8477c5.8125-2.9062 12.262-9.1406 12.262-20.805 0-11.789-6.4492-17.898-12.262-20.805s-11.391-2.7891-11.391-2.7891h-15.746s-2.2422-0.13281-4.3008-1.1641c-2.0586-1.0273-3.543-2.6289-3.543-6.7422 0-4.0312 1.4883-5.7109 3.543-6.7422 2.0586-1.0273 4.3008-1.1055 4.3008-1.1055h15.746s2.3008 0.074218 4.3594 1.1055c2.0586 1.0273 3.543 2.6602 3.543 6.7422 0 10.5 15.746 10.5 15.746 0 0-11.664-6.4492-17.898-12.262-20.805s-11.391-2.7891-11.391-2.7891z"></path>
  <path d="m399.91 203.11c-4.3477 0.046875-7.8359 3.6133-7.7852 7.9609v15.746h15.746v-15.746c0.050781-4.418-3.543-8.0117-7.9609-7.9609z"></path>
  <path d="m392.12 289.8v15.746c0 10.5 15.746 10.5 15.746 0v-15.746s-15.723 0.003906-15.746 0z"></path>
  <path d="m305.52 321.26s-5.5742-0.11719-11.391 2.7891c-5.8125 2.9062-12.203 9.2266-12.203 20.863 0 11.602 6.3906 17.898 12.203 20.805 1.8086 0.90625 3.543 1.457 3.543 1.457l0.003906 17.078h-55.09s-9.543-0.10938-19.293 4.7656-20.105 15.102-20.105 34.574v173.23c0 19.445 10.355 29.699 20.105 34.574s19.293 4.7656 19.293 4.7656l314.84 0.003906s9.543 0.10938 19.293-4.7656 20.105-15.191 20.105-34.574l0.003907-173.23c0-19.414-10.355-29.699-20.105-34.574-9.7539-4.875-19.297-4.7656-19.297-4.7656h-55.086v-17.664c1.6016-0.41406 1.7344 0.035156 3.543-0.87109 5.8125-2.9062 12.203-9.168 12.203-20.805 0-11.633-6.3906-17.953-12.203-20.863-5.8125-2.9062-11.391-2.7891-11.391-2.7891zm0 15.746h188.98s2.2422 0.13281 4.3008 1.1641c2.0586 1.0273 3.543 2.5391 3.543 6.7422 0 4.0469-1.4883 5.7109-3.543 6.7422-2.0586 1.0273-4.3008 1.1055-4.3008 1.1055-4.3711-0.015625-7.918 3.5312-7.9023 7.9023v31.438c-0.015625 4.3711 3.5312 7.918 7.9023 7.9023h62.934s6.2656 0.082032 12.262 3.0781c5.9961 2.9961 11.391 8.6836 11.391 20.512v173.23c0 11.766-5.3945 17.516-11.391 20.512-5.9961 3-12.266 3.082-12.266 3.082h-314.84s-6.2656-0.082031-12.262-3.0781c-5.9961-2.9961-11.391-8.7148-11.391-20.512v-173.23c0-11.797 5.3945-17.516 11.391-20.512 5.9922-2.9961 12.262-3.0781 12.262-3.0781h62.934c4.3711 0.015625 7.918-3.5312 7.9023-7.9023v-31.441c0.015625-4.3711-3.5312-7.918-7.9023-7.9023 0 0-2.3008-0.074218-4.3594-1.1055-2.0586-1.0273-3.4883-2.8164-3.4883-6.7422 0-4.0469 1.4297-5.7109 3.4883-6.7422 2.0586-1.0273 4.3594-1.1641 4.3594-1.1641z"></path>
  <path d="m344.89 494.45c-25.992 0-47.242 21.129-47.242 47.242 0 26.176 21.25 47.242 47.242 47.242h110.23c25.992 0 47.188-21.004 47.188-47.242 0-26.176-21.191-47.242-47.188-47.242zm0 15.746h110.23c17.484 0 31.438 14.164 31.438 31.496 0 17.359-13.953 31.496-31.438 31.496l-110.23 0.003906c-17.484 0-31.496-14.258-31.496-31.496 0-17.27 14.012-31.496 31.496-31.496z"></path>
  <path d="m352.62 525.83c-2.0898 0.035157-4.0781 0.90234-5.5273 2.4062-1.4492 1.5039-2.2422 3.5234-2.2031 5.6133v15.746c0 2.0898 0.82812 4.0938 2.3047 5.5703 1.4766 1.4805 3.4805 2.3086 5.5703 2.3086s4.0938-0.82812 5.5703-2.3086c1.4766-1.4766 2.3047-3.4805 2.3047-5.5703v-15.746c0.039063-2.1406-0.79297-4.2031-2.3047-5.7148-1.5117-1.5156-3.5742-2.3477-5.7148-2.3047z"></path>
  <path d="m399.86 525.83c-2.0859 0.035157-4.0742 0.90234-5.5234 2.4062-1.4492 1.5039-2.2422 3.5234-2.2031 5.6133v15.746c-0.003907 2.0898 0.82422 4.0938 2.3008 5.5742 1.4805 1.4766 3.4844 2.3086 5.5742 2.3086 2.0898 0 4.0938-0.83203 5.5703-2.3086 1.4766-1.4805 2.3047-3.4844 2.3008-5.5742v-15.746c0.042969-2.1406-0.78906-4.2031-2.3047-5.7148-1.5117-1.5156-3.5742-2.3477-5.7148-2.3047z"></path>
  <path d="m447.11 525.83c-2.0898 0.035157-4.0781 0.90234-5.5273 2.4062-1.4492 1.5039-2.2422 3.5234-2.2031 5.6133v15.746c0 4.3477 3.5273 7.875 7.875 7.875s7.875-3.5273 7.875-7.875v-15.746c0.039063-2.1406-0.79297-4.2031-2.3047-5.7148-1.5117-1.5156-3.5781-2.3477-5.7148-2.3047z"></path>
 </g>

      </g>
      </svg>