<svg id="svg" fill="#f5caa1" stroke="#f5caa1" width="200" height="200" version="1.1" viewBox="144 144 512 512" xmlns="http://www.w3.org/2000/svg">
    <g id="IconSvg_bgCarrier" stroke-width="0"></g>
    <g id="IconSvg_tracerCarrier" stroke-linecap="round" stroke-linejoin="round" stroke="#CCCCCC" stroke-width="0">
      <path xmlns="http://www.w3.org/2000/svg" d="m605.2 466c-0.19531-0.25391-0.47266-0.41016-0.69922-0.63672v-9.0078c0-112.76-91.738-204.48-204.5-204.48-19.676 0-38.648 2.9492-56.664 8.1562-0.63672 0.097656-1.2344 0.22266-1.8164 0.46875-84.332 25.227-146.01 103.43-146.01 195.86v9.3359c-19.184 7.9492-29.031 17.094-29.031 28.008 0 43.055 152.75 54.434 233.52 54.434 80.766 0 233.53-11.379 233.53-54.434 0-10.785-9.6367-19.832-28.324-27.695zm-156.93-191.9 6.4297 73.32c1.3438 15.461-3.8438 30.848-14.242 42.207-20.844 22.738-60.113 22.727-80.918 0-10.398-11.359-15.586-26.734-14.234-42.188l6.5664-73.379c15.395-4.0703 31.469-6.4531 48.125-6.4531 16.711 0 32.836 2.3945 48.273 6.4922zm-112.66 5.0625-5.9844 66.883c-1.7383 19.855 4.9297 39.613 18.309 54.219 13.426 14.656 31.914 22.738 52.07 22.738 20.141 0 38.633-8.082 52.07-22.738 13.379-14.609 20.047-34.367 18.316-54.219l-5.8594-66.836c72.344 26.445 124.22 95.762 124.22 177.14v8.8867c-115.97 31.027-260.96 31.363-377.49 0.89453v-9.7812c-0.003906-81.43 51.938-150.78 124.35-177.19zm64.391 253.21c-140.91 0-217.78-25.543-217.78-38.672 0-2.1211 4.2734-7.5078 19.305-13.668 60.363 16.422 128.29 25.184 196.79 25.184 69.277 0 137.8-8.9883 198.68-25.766 16.215 6.4023 20.773 12.066 20.773 14.254 0.003907 13.121-76.859 38.668-217.77 38.668z"></path>

      </g>
     <g id="IconSvg_iconCarrier">
      <path xmlns="http://www.w3.org/2000/svg" d="m605.2 466c-0.19531-0.25391-0.47266-0.41016-0.69922-0.63672v-9.0078c0-112.76-91.738-204.48-204.5-204.48-19.676 0-38.648 2.9492-56.664 8.1562-0.63672 0.097656-1.2344 0.22266-1.8164 0.46875-84.332 25.227-146.01 103.43-146.01 195.86v9.3359c-19.184 7.9492-29.031 17.094-29.031 28.008 0 43.055 152.75 54.434 233.52 54.434 80.766 0 233.53-11.379 233.53-54.434 0-10.785-9.6367-19.832-28.324-27.695zm-156.93-191.9 6.4297 73.32c1.3438 15.461-3.8438 30.848-14.242 42.207-20.844 22.738-60.113 22.727-80.918 0-10.398-11.359-15.586-26.734-14.234-42.188l6.5664-73.379c15.395-4.0703 31.469-6.4531 48.125-6.4531 16.711 0 32.836 2.3945 48.273 6.4922zm-112.66 5.0625-5.9844 66.883c-1.7383 19.855 4.9297 39.613 18.309 54.219 13.426 14.656 31.914 22.738 52.07 22.738 20.141 0 38.633-8.082 52.07-22.738 13.379-14.609 20.047-34.367 18.316-54.219l-5.8594-66.836c72.344 26.445 124.22 95.762 124.22 177.14v8.8867c-115.97 31.027-260.96 31.363-377.49 0.89453v-9.7812c-0.003906-81.43 51.938-150.78 124.35-177.19zm64.391 253.21c-140.91 0-217.78-25.543-217.78-38.672 0-2.1211 4.2734-7.5078 19.305-13.668 60.363 16.422 128.29 25.184 196.79 25.184 69.277 0 137.8-8.9883 198.68-25.766 16.215 6.4023 20.773 12.066 20.773 14.254 0.003907 13.121-76.859 38.668-217.77 38.668z"></path>

      </g>
      </svg>